<mxfile host="app.diagrams.net" modified="2023-07-16T09:42:09.600Z" agent="Mozilla/5.0 (Windows NT 10.0; Win64; x64) AppleWebKit/537.36 (KHTML, like Gecko) Chrome/114.0.0.0 Safari/537.36 Edg/114.0.1823.67" etag="tdP9DdpY59zKrmF9Gtju" version="21.3.8" type="github">
  <diagram name="第 1 页" id="4sTRhTM_rHgDJePiN2_6">
    <mxGraphModel dx="698" dy="443" grid="1" gridSize="10" guides="1" tooltips="1" connect="1" arrows="1" fold="1" page="1" pageScale="1" pageWidth="827" pageHeight="1169" math="0" shadow="0">
      <root>
        <mxCell id="0" />
        <mxCell id="1" parent="0" />
        <mxCell id="BjNONwsWsikVhtbJ6fCO-1" value="PathObj&lt;br&gt;原始数据：latitude/longitude/dataString/trackName&lt;br&gt;" style="rounded=0;whiteSpace=wrap;html=1;" vertex="1" parent="1">
          <mxGeometry x="40" y="140" width="320" height="60" as="geometry" />
        </mxCell>
        <mxCell id="BjNONwsWsikVhtbJ6fCO-2" value="&lt;div style=&quot;text-align: left;&quot;&gt;&lt;span style=&quot;background-color: initial;&quot;&gt;CSV解析&lt;/span&gt;&lt;/div&gt;&lt;div style=&quot;text-align: left;&quot;&gt;输入：csv&lt;/div&gt;&lt;div style=&quot;text-align: left;&quot;&gt;输出为：list&amp;lt;PathObj&amp;gt;&lt;/div&gt;" style="rounded=0;whiteSpace=wrap;html=1;" vertex="1" parent="1">
          <mxGeometry x="40" y="250" width="320" height="60" as="geometry" />
        </mxCell>
        <mxCell id="BjNONwsWsikVhtbJ6fCO-3" value="&lt;div style=&quot;text-align: left;&quot;&gt;&lt;span style=&quot;background-color: initial;&quot;&gt;Generate Path&lt;/span&gt;&lt;/div&gt;&lt;div style=&quot;text-align: left;&quot;&gt;&lt;span style=&quot;background-color: initial;&quot;&gt;start中调用csv解析得到所有的PathObj&lt;/span&gt;&lt;/div&gt;&lt;div style=&quot;text-align: left;&quot;&gt;创建初始的path&lt;br&gt;柱体+球体模式&lt;/div&gt;&lt;div style=&quot;text-align: left;&quot;&gt;&lt;br&gt;&lt;/div&gt;" style="rounded=0;whiteSpace=wrap;html=1;" vertex="1" parent="1">
          <mxGeometry x="40" y="360" width="320" height="140" as="geometry" />
        </mxCell>
        <mxCell id="BjNONwsWsikVhtbJ6fCO-4" value="&lt;div style=&quot;text-align: left;&quot;&gt;回调更新Path&lt;/div&gt;" style="rounded=0;whiteSpace=wrap;html=1;" vertex="1" parent="1">
          <mxGeometry x="510" y="140" width="140" height="60" as="geometry" />
        </mxCell>
        <mxCell id="BjNONwsWsikVhtbJ6fCO-6" value="&lt;div style=&quot;text-align: left;&quot;&gt;STC&lt;/div&gt;&lt;div style=&quot;text-align: left;&quot;&gt;TODO：获取真实地图&lt;/div&gt;&lt;div style=&quot;text-align: left;&quot;&gt;x、z轴作为经纬度的映射（增加比例）&lt;/div&gt;&lt;div style=&quot;text-align: left;&quot;&gt;y轴为时间尺度&lt;/div&gt;&lt;div style=&quot;text-align: left;&quot;&gt;&lt;br&gt;&lt;br&gt;&lt;/div&gt;" style="rounded=0;whiteSpace=wrap;html=1;" vertex="1" parent="1">
          <mxGeometry x="450" y="410" width="320" height="140" as="geometry" />
        </mxCell>
        <mxCell id="BjNONwsWsikVhtbJ6fCO-7" value="&lt;div style=&quot;text-align: left;&quot;&gt;STC&lt;/div&gt;&lt;div style=&quot;text-align: left;&quot;&gt;&lt;font style=&quot;font-size: 8px;&quot;&gt;TODO：获取真实地图&lt;/font&gt;&lt;/div&gt;&lt;div style=&quot;text-align: left;&quot;&gt;x、z轴作为经纬度的映射（增加比例）&lt;/div&gt;&lt;div style=&quot;text-align: left;&quot;&gt;y轴为时间尺度&lt;/div&gt;&lt;div style=&quot;text-align: left;&quot;&gt;&lt;br&gt;&lt;/div&gt;&lt;div style=&quot;text-align: left;&quot;&gt;&lt;br&gt;&lt;br&gt;&lt;/div&gt;" style="rounded=0;whiteSpace=wrap;html=1;" vertex="1" parent="1">
          <mxGeometry x="300" y="600" width="320" height="140" as="geometry" />
        </mxCell>
      </root>
    </mxGraphModel>
  </diagram>
</mxfile>
